<svg width="1017" height="139" viewBox="0 0 1017 139" fill="none" xmlns="http://www.w3.org/2000/svg">
<path fill-rule="evenodd" clip-rule="evenodd" d="M0 110.172L41.7945 117.345C83.589 124.517 170.661 140.655 254.25 138.862C337.839 135.276 424.911 115.552 508.5 101.207C592.089 88.6551 679.161 83.2758 762.75 77.8965C846.339 72.5172 933.411 67.1379 975.205 65.3448L1017 61.7586V-0.999996H975.205C933.411 -0.999996 846.339 -0.999996 762.75 -0.999996C679.161 -0.999996 592.089 -0.999996 508.5 -0.999996C424.911 -0.999996 337.839 -0.999996 254.25 -0.999996C170.661 -0.999996 83.589 -0.999996 41.7945 -0.999996H0V110.172Z" fill="#FF5555"/>
</svg>
