<svg width="97" height="19" viewBox="0 0 97 19" fill="none" xmlns="http://www.w3.org/2000/svg">
<path d="M16.824 18H13.344V7.584L10.344 14.064H7.32L4.32 7.608V18H0.864V1.2H4.56L8.856 10.2L13.344 1.2H16.824V18ZM19.3993 6H22.5673V13.344C22.5673 14 22.6953 14.536 22.9513 14.952C23.2073 15.352 23.6313 15.552 24.2233 15.552C24.8153 15.552 25.5513 15.184 26.4313 14.448V6H29.5753V18H26.9353L26.4313 16.848C25.7433 17.36 25.1433 17.704 24.6313 17.88C24.1353 18.056 23.5513 18.144 22.8793 18.144C21.8073 18.144 20.9593 17.792 20.3353 17.088C19.7113 16.384 19.3993 15.336 19.3993 13.944V6ZM33.2514 14.808C34.3234 15.352 35.4194 15.624 36.5394 15.624C37.6754 15.624 38.2434 15.208 38.2434 14.376C38.2434 13.608 37.6034 13.04 36.3234 12.672C35.7794 12.528 35.2354 12.36 34.6914 12.168C34.1634 11.96 33.7074 11.632 33.3234 11.184C32.9554 10.72 32.7714 10.128 32.7714 9.408C32.7714 8.24 33.1314 7.344 33.8514 6.72C34.5714 6.08 35.5714 5.76 36.8514 5.76C38.1474 5.76 39.3714 5.984 40.5234 6.432L40.0194 8.928C38.9634 8.496 37.9314 8.28 36.9234 8.28C36.2194 8.28 35.8674 8.52 35.8674 9C35.8674 9.496 36.3394 9.872 37.2834 10.128C38.2754 10.384 39.1554 10.752 39.9234 11.232C40.3234 11.472 40.6594 11.832 40.9314 12.312C41.2034 12.792 41.3394 13.368 41.3394 14.04C41.3394 15.304 40.9154 16.304 40.0674 17.04C39.2194 17.776 38.0514 18.144 36.5634 18.144C35.0754 18.144 33.7474 17.8 32.5794 17.112L33.2514 14.808Z" fill="black"/>
<path d="M53.2995 1.8L52.7235 4.608L51.2355 4.2C50.1795 3.96 49.2595 3.84 48.4755 3.84C47.3875 3.84 46.8435 4.36 46.8435 5.4C46.8435 5.8 47.0275 6.168 47.3955 6.504C47.7795 6.824 48.2595 7.096 48.8355 7.32C49.4115 7.528 50.0275 7.792 50.6835 8.112C51.3395 8.432 51.9555 8.776 52.5315 9.144C53.1075 9.512 53.5795 10.016 53.9475 10.656C54.3315 11.296 54.5235 12.032 54.5235 12.864C54.5235 14.512 53.9875 15.808 52.9155 16.752C51.8595 17.68 50.3635 18.144 48.4275 18.144C47.4355 18.144 46.4435 18.016 45.4515 17.76C44.4755 17.488 43.6675 17.176 43.0275 16.824L44.0595 14.256C45.5315 14.928 46.9875 15.264 48.4275 15.264C49.2435 15.264 49.8835 15.08 50.3475 14.712C50.8115 14.328 51.0435 13.84 51.0435 13.248C51.0435 12.656 50.7795 12.168 50.2515 11.784C49.7235 11.384 49.0835 11.032 48.3315 10.728C47.5795 10.408 46.8275 10.056 46.0755 9.672C45.3235 9.272 44.6835 8.72 44.1555 8.016C43.6275 7.296 43.3635 6.448 43.3635 5.472C43.3635 4.016 43.8195 2.904 44.7315 2.136C45.6435 1.352 46.8675 0.959999 48.4035 0.959999C49.9555 0.959999 51.5875 1.24 53.2995 1.8ZM57.2303 15.408V8.64H56.0063V6H57.2543V2.568H60.3503V6H62.8703V8.64H60.3263V13.872C60.3263 14.944 60.6543 15.48 61.3103 15.48C61.6783 15.48 62.0703 15.432 62.4863 15.336L62.9903 17.832C62.2543 18.04 61.4703 18.144 60.6383 18.144C59.8223 18.144 59.0463 17.936 58.3103 17.52C57.5903 17.088 57.2303 16.384 57.2303 15.408ZM75.5591 12.024C75.5591 13.944 75.0711 15.448 74.0951 16.536C73.1191 17.624 71.7351 18.168 69.9431 18.168C68.1511 18.168 66.7911 17.624 65.8631 16.536C64.9351 15.448 64.4711 13.936 64.4711 12C64.4711 10.064 64.9351 8.544 65.8631 7.44C66.7911 6.32 68.1271 5.76 69.8711 5.76C71.6151 5.76 72.9991 6.328 74.0231 7.464C75.0471 8.584 75.5591 10.104 75.5591 12.024ZM72.3671 11.976C72.3671 9.528 71.5831 8.304 70.0151 8.304C68.4151 8.304 67.6151 9.52 67.6151 11.952C67.6151 14.384 68.4231 15.6 70.0391 15.6C70.9031 15.6 71.5031 15.296 71.8391 14.688C72.1911 14.064 72.3671 13.16 72.3671 11.976ZM81.4474 10.032V18H78.3034V6H80.7994L81.0874 7.176C81.7274 6.664 82.2634 6.304 82.6954 6.096C83.1274 5.872 83.5034 5.76 83.8234 5.76C84.1594 5.76 84.3834 5.768 84.4954 5.784C84.6074 5.784 84.7034 5.792 84.7834 5.808C84.8634 5.824 84.9994 5.856 85.1914 5.904L84.9034 8.76C84.6154 8.664 84.2234 8.616 83.7274 8.616C83.0554 8.616 82.2954 9.088 81.4474 10.032ZM96.4144 17.256C94.8944 17.848 93.4864 18.144 92.1904 18.144C88.4304 18.144 86.5504 16.112 86.5504 12.048C86.5504 9.984 87.0064 8.424 87.9184 7.368C88.8304 6.296 90.1584 5.76 91.9024 5.76C93.3424 5.76 94.4944 6.208 95.3584 7.104C96.2224 8 96.6544 9.328 96.6544 11.088C96.6544 11.792 96.6224 12.408 96.5584 12.936H89.6224C89.6224 13.88 89.8784 14.576 90.3904 15.024C90.9024 15.472 91.5904 15.696 92.4544 15.696C93.3184 15.696 94.4624 15.504 95.8864 15.12L96.4144 17.256ZM93.6544 10.728V10.56C93.6544 9.824 93.4944 9.232 93.1744 8.784C92.8544 8.336 92.3504 8.112 91.6624 8.112C90.9744 8.112 90.4624 8.36 90.1264 8.856C89.7904 9.352 89.6144 9.976 89.5984 10.728H93.6544Z" fill="#FF0000"/>
</svg>
