<svg width="256" height="47" viewBox="0 0 256 47" fill="none" xmlns="http://www.w3.org/2000/svg">
<path d="M42.864 46H33.584V18.224L25.584 35.504H17.52L9.52 18.288V46H0.304V1.2H10.16L21.616 25.2L33.584 1.2H42.864V46ZM49.7315 14H58.1795V33.584C58.1795 35.3333 58.5208 36.7627 59.2035 37.872C59.8862 38.9387 61.0168 39.472 62.5955 39.472C64.1742 39.472 66.1368 38.4907 68.4835 36.528V14H76.8675V46H69.8275L68.4835 42.928C66.6488 44.2933 65.0488 45.2107 63.6835 45.68C62.3608 46.1493 60.8035 46.384 59.0115 46.384C56.1528 46.384 53.8915 45.4453 52.2275 43.568C50.5635 41.6907 49.7315 38.896 49.7315 35.184V14ZM86.6705 37.488C89.5292 38.9387 92.4518 39.664 95.4385 39.664C98.4678 39.664 99.9825 38.5547 99.9825 36.336C99.9825 34.288 98.2758 32.7733 94.8625 31.792C93.4118 31.408 91.9612 30.96 90.5105 30.448C89.1025 29.8933 87.8865 29.0187 86.8625 27.824C85.8812 26.5867 85.3905 25.008 85.3905 23.088C85.3905 19.9733 86.3505 17.584 88.2705 15.92C90.1905 14.2133 92.8572 13.36 96.2705 13.36C99.7265 13.36 102.991 13.9573 106.063 15.152L104.719 21.808C101.903 20.656 99.1505 20.08 96.4625 20.08C94.5852 20.08 93.6465 20.72 93.6465 22C93.6465 23.3227 94.9052 24.3253 97.4225 25.008C100.068 25.6907 102.415 26.672 104.463 27.952C105.529 28.592 106.425 29.552 107.151 30.832C107.876 32.112 108.239 33.648 108.239 35.44C108.239 38.8107 107.108 41.4773 104.847 43.44C102.585 45.4027 99.4705 46.384 95.5025 46.384C91.5345 46.384 87.9932 45.4667 84.8785 43.632L86.6705 37.488Z" fill="black"/>
<path d="M140.132 2.8L138.596 10.288L134.628 9.2C131.812 8.56 129.359 8.24 127.268 8.24C124.367 8.24 122.916 9.62666 122.916 12.4C122.916 13.4667 123.407 14.448 124.388 15.344C125.412 16.1973 126.692 16.9227 128.228 17.52C129.764 18.0747 131.407 18.7787 133.156 19.632C134.905 20.4853 136.548 21.4027 138.084 22.384C139.62 23.3653 140.879 24.7093 141.86 26.416C142.884 28.1227 143.396 30.0853 143.396 32.304C143.396 36.6987 141.967 40.1547 139.108 42.672C136.292 45.1467 132.303 46.384 127.14 46.384C124.495 46.384 121.849 46.0427 119.204 45.36C116.601 44.6347 114.447 43.8027 112.74 42.864L115.492 36.016C119.417 37.808 123.3 38.704 127.14 38.704C129.316 38.704 131.023 38.2133 132.26 37.232C133.497 36.208 134.116 34.9067 134.116 33.328C134.116 31.7493 133.412 30.448 132.004 29.424C130.596 28.3573 128.889 27.4187 126.884 26.608C124.879 25.7547 122.873 24.816 120.868 23.792C118.863 22.7253 117.156 21.2533 115.748 19.376C114.34 17.456 113.636 15.1947 113.636 12.592C113.636 8.70933 114.852 5.744 117.284 3.696C119.716 1.60533 122.98 0.559998 127.076 0.559998C131.215 0.559998 135.567 1.30666 140.132 2.8ZM150.614 39.088V21.04H147.35V14H150.678V4.848H158.934V14H165.654V21.04H158.87V34.992C158.87 37.8507 159.745 39.28 161.494 39.28C162.475 39.28 163.521 39.152 164.63 38.896L165.974 45.552C164.011 46.1067 161.921 46.384 159.702 46.384C157.526 46.384 155.457 45.8293 153.494 44.72C151.574 43.568 150.614 41.6907 150.614 39.088ZM199.491 30.064C199.491 35.184 198.19 39.1947 195.587 42.096C192.984 44.9973 189.294 46.448 184.515 46.448C179.736 46.448 176.11 44.9973 173.635 42.096C171.16 39.1947 169.923 35.1627 169.923 30C169.923 24.8373 171.16 20.784 173.635 17.84C176.11 14.8533 179.672 13.36 184.323 13.36C188.974 13.36 192.664 14.8747 195.395 17.904C198.126 20.8907 199.491 24.944 199.491 30.064ZM190.979 29.936C190.979 23.408 188.888 20.144 184.707 20.144C180.44 20.144 178.307 23.3867 178.307 29.872C178.307 36.3573 180.462 39.6 184.771 39.6C187.075 39.6 188.675 38.7893 189.571 37.168C190.51 35.504 190.979 33.0933 190.979 29.936ZM215.193 24.752V46H206.809V14H213.465L214.233 17.136C215.94 15.7707 217.369 14.8107 218.521 14.256C219.673 13.6587 220.676 13.36 221.529 13.36C222.425 13.36 223.022 13.3813 223.321 13.424C223.62 13.424 223.876 13.4453 224.089 13.488C224.302 13.5307 224.665 13.616 225.177 13.744L224.409 21.36C223.641 21.104 222.596 20.976 221.273 20.976C219.481 20.976 217.454 22.2347 215.193 24.752ZM255.105 44.016C251.052 45.5947 247.297 46.384 243.841 46.384C233.814 46.384 228.801 40.9653 228.801 30.128C228.801 24.624 230.017 20.464 232.449 17.648C234.881 14.7893 238.422 13.36 243.073 13.36C246.913 13.36 249.985 14.5547 252.289 16.944C254.593 19.3333 255.745 22.8747 255.745 27.568C255.745 29.4453 255.66 31.088 255.489 32.496H236.993C236.993 35.0133 237.676 36.8693 239.041 38.064C240.406 39.2587 242.241 39.856 244.545 39.856C246.849 39.856 249.9 39.344 253.697 38.32L255.105 44.016ZM247.745 26.608V26.16C247.745 24.1973 247.318 22.6187 246.465 21.424C245.612 20.2293 244.268 19.632 242.433 19.632C240.598 19.632 239.233 20.2933 238.337 21.616C237.441 22.9387 236.972 24.6027 236.929 26.608H247.745Z" fill="#FF0000"/>
</svg>
